2D_gait_states
version=1
nRows=15
nColumns=39
inDegrees=yes

# SIMM Motion File Header:
name 2D_gait_states
datacolumns 39
datarows 15
otherdata 1
range 0.29467518 0.49490369
endheader
time	/hamstrings_r/activation	/bifemsh_r/activation	/glut_max_r/activation	/iliopsoas_r/activation	/rect_fem_r/activation	/vasti_r/activation	/gastroc_r/activation	/soleus_r/activation	/tib_ant_r/activation	/hamstrings_l/activation	/bifemsh_l/activation	/glut_max_l/activation	/iliopsoas_l/activation	/rect_fem_l/activation	/vasti_l/activation	/gastroc_l/activation	/soleus_l/activation	/tib_ant_l/activation	/jointset/groundPelvis/pelvis_tilt/value	/jointset/groundPelvis/pelvis_tilt/speed	/jointset/groundPelvis/pelvis_tx/value	/jointset/groundPelvis/pelvis_tx/speed	/jointset/groundPelvis/pelvis_ty/value	/jointset/groundPelvis/pelvis_ty/speed	/jointset/hip_l/hip_flexion_l/value	/jointset/hip_l/hip_flexion_l/speed	/jointset/hip_r/hip_flexion_r/value	/jointset/hip_r/hip_flexion_r/speed	/jointset/knee_l/knee_angle_l/value	/jointset/knee_l/knee_angle_l/speed	/jointset/knee_r/knee_angle_r/value	/jointset/knee_r/knee_angle_r/speed	/jointset/ankle_l/ankle_angle_l/value	/jointset/ankle_l/ankle_angle_l/speed	/jointset/ankle_r/ankle_angle_r/value	/jointset/ankle_r/ankle_angle_r/speed	/jointset/lumbar/lumbar/value	/jointset/lumbar/lumbar/speed
      0.29467518	      0.00000000	      0.00000000	      0.00000000	      0.00000000	      0.00000000	      0.00000000	      0.00000000	      0.00000000	      0.00000000	      0.00000000	      0.00000000	      0.00000000	      0.00000000	      0.00000000	      0.00000000	      0.00000000	      0.00000000	      0.00000000	      2.50955656	   -158.27313498	     -0.00171088	     -0.07382868	      0.53608920	     -3.12883513	    -11.29699822	    254.93105840	     20.83948497	    214.84272488	    -23.45925722	   -118.90515221	    -28.82213591	   -140.06197911	    -13.33340054	     -9.03508528	    -12.91999422	      9.46456387	    -11.82810653	    174.63235072
      0.31086938	      0.00000000	      0.00000000	      0.00000000	      0.00000000	      0.00000000	      0.00000000	      0.00000000	      0.00000000	      0.00000000	      0.00000000	      0.00000000	      0.00000000	      0.00000000	      0.00000000	      0.00000000	      0.00000000	      0.00000000	      0.00000000	     -0.10453384	   -163.01841149	     -0.00296380	     -0.08055979	      0.48405531	     -3.29485656	     -7.11987651	    258.86629512	     24.34450919	    215.99433865	    -25.33408733	   -111.85725480	    -31.03694810	   -132.92569350	    -13.43507378	     -3.58081106	    -12.70531999	     16.80301085	     -8.93390697	    181.04563463
      0.32477363	      0.00000000	      0.00000000	      0.00000000	      0.00000000	      0.00000000	      0.00000000	      0.00000000	      0.00000000	      0.00000000	      0.00000000	      0.00000000	      0.00000000	      0.00000000	      0.00000000	      0.00000000	      0.00000000	      0.00000000	      0.00000000	     -2.35492949	   -159.50559136	     -0.00411097	     -0.08397792	      0.43732464	     -3.42502748	     -3.55647251	    252.14681480	     27.29692533	    207.19623089	    -26.82623607	   -102.27578719	    -32.82881792	   -124.52803302	    -13.45354754	      0.91184453	    -12.43490181	     21.90352999	     -6.42916816	    177.88664310
      0.33867788	      0.00000000	      0.00000000	      0.00000000	      0.00000000	      0.00000000	      0.00000000	      0.00000000	      0.00000000	      0.00000000	      0.00000000	      0.00000000	      0.00000000	      0.00000000	      0.00000000	      0.00000000	      0.00000000	      0.00000000	      0.00000000	     -4.50819193	   -149.12368937	     -0.00528363	     -0.08407662	      0.38886143	     -3.54424322	     -0.14984882	    236.44215087	     30.06655553	    189.84719806	    -28.16586418	    -90.03589264	    -34.49345203	   -114.74315352	    -13.40973600	      5.39066921	    -12.10181749	     25.78878767	     -4.02411466	    166.78159250
      0.35258212	      0.00000000	      0.00000000	      0.00000000	      0.00000000	      0.00000000	      0.00000000	      0.00000000	      0.00000000	      0.00000000	      0.00000000	      0.00000000	      0.00000000	      0.00000000	      0.00000000	      0.00000000	      0.00000000	      0.00000000	      0.00000000	     -6.47334294	   -132.61324958	     -0.00643048	     -0.08020180	      0.33880841	     -3.65402889	      2.98207372	    212.87367506	     32.54207335	    165.13497512	    -29.32125110	    -75.90948797	    -36.01647728	   -104.26737123	    -13.30394280	      9.79078763	    -11.72448305	     28.21769599	     -1.82451208	    148.51747553
      0.36648637	      0.00000000	      0.00000000	      0.00000000	      0.00000000	      0.00000000	      0.00000000	      0.00000000	      0.00000000	      0.00000000	      0.00000000	      0.00000000	      0.00000000	      0.00000000	      0.00000000	      0.00000000	      0.00000000	      0.00000000	      0.00000000	     -8.17300698	   -111.15875419	     -0.00749497	     -0.07226187	      0.28728199	     -3.75657293	      5.74107004	    183.10618131	     34.63218112	    134.70554989	    -30.27175755	    -60.69153569	    -37.39241941	    -93.66282636	    -13.13948608	     13.74649699	    -11.32540526	     28.86240623	      0.07888598	    124.43036599
      0.38039062	      0.00000000	      0.00000000	      0.00000000	      0.00000000	      0.00000000	      0.00000000	      0.00000000	      0.00000000	      0.00000000	      0.00000000	      0.00000000	      0.00000000	      0.00000000	      0.00000000	      0.00000000	      0.00000000	      0.00000000	      0.00000000	     -9.54815386	    -86.17870005	     -0.00842318	     -0.06071482	      0.23436620	     -3.85427165	      8.05409364	    149.04653136	     36.26995324	    100.37219389	    -31.00710823	    -45.05900287	    -38.62210589	    -83.26519852	    -12.92634971	     16.69297655	    -10.93138773	     27.46111358	      1.61630315	     96.15873168
      0.39429486	      0.00000000	      0.00000000	      0.00000000	      0.00000000	      0.00000000	      0.00000000	      0.00000000	      0.00000000	      0.00000000	      0.00000000	      0.00000000	      0.00000000	      0.00000000	      0.00000000	      0.00000000	      0.00000000	      0.00000000	      0.00000000	    -10.55994744	    -59.13227384	     -0.00917065	     -0.04643594	      0.18011249	     -3.94937038	      9.87472606	    112.58379676	     37.41342076	     63.88158757	    -31.52516817	    -29.50281578	    -39.70935072	    -73.17299445	    -12.68258104	     18.07287406	    -10.57148597	     23.97235473	      2.74144890	     65.40899544
      0.40819911	      0.00000000	      0.00000000	      0.00000000	      0.00000000	      0.00000000	      0.00000000	      0.00000000	      0.00000000	      0.00000000	      0.00000000	      0.00000000	      0.00000000	      0.00000000	      0.00000000	      0.00000000	      0.00000000	      0.00000000	      0.00000000	    -11.18935236	    -31.39318711	     -0.00970698	     -0.03054025	      0.12454324	     -4.04379028	     11.18176421	     75.43920196	     38.04366637	     26.79088961	    -31.82939733	    -14.34271618	    -40.65798387	    -63.30278092	    -12.43269861	     17.53992013	    -10.27329439	     18.65228470	      3.43127071	     33.79797394
      0.42210336	      0.00000000	      0.00000000	      0.00000000	      0.00000000	      0.00000000	      0.00000000	      0.00000000	      0.00000000	      0.00000000	      0.00000000	      0.00000000	      0.00000000	      0.00000000	      0.00000000	      0.00000000	      0.00000000	      0.00000000	      0.00000000	    -11.43545215	     -4.18818463	     -0.01001792	     -0.01420810	      0.06765654	     -4.13911095	     11.97638944	     39.10785553	     38.16188870	     -9.56294107	    -31.92677173	      0.22579334	    -41.46991003	    -53.47639589	    -12.20386699	     15.06930703	    -10.05885077	     12.03269923	      3.68407702	      2.77373639
      0.43600761	      0.00000000	      0.00000000	      0.00000000	      0.00000000	      0.00000000	      0.00000000	      0.00000000	      0.00000000	      0.00000000	      0.00000000	      0.00000000	      0.00000000	      0.00000000	      0.00000000	      0.00000000	      0.00000000	      0.00000000	      0.00000000	    -11.31325367	     21.41950039	     -0.01010522	      0.00145525	      0.00943051	     -4.23664285	     12.27900066	      4.86256651	     37.78646599	    -44.03956187	    -31.82647169	     14.07109600	    -42.14441303	    -43.50846096	    -12.02126484	     10.96506818	     -9.94144159	      4.81947115	      3.51698118	    -26.40787693
      0.44991185	      0.00000000	      0.00000000	      0.00000000	      0.00000000	      0.00000000	      0.00000000	      0.00000000	      0.00000000	      0.00000000	      0.00000000	      0.00000000	      0.00000000	      0.00000000	      0.00000000	      0.00000000	      0.00000000	      0.00000000	      0.00000000	    -10.85142844	     44.52639311	     -0.00998491	      0.01552002	     -0.05017365	     -4.33752112	     12.12631224	    -26.21754750	     36.95049811	    -75.65541377	    -31.53939073	     27.07039333	    -42.67857272	    -33.27717399	    -11.90395005	      5.78658739	     -9.92411067	     -2.24264349	      2.96322912	    -52.68111336
      0.46381610	      0.00000000	      0.00000000	      0.00000000	      0.00000000	      0.00000000	      0.00000000	      0.00000000	      0.00000000	      0.00000000	      0.00000000	      0.00000000	      0.00000000	      0.00000000	      0.00000000	      0.00000000	      0.00000000	      0.00000000	      0.00000000	    -10.09013514	     64.38324223	     -0.00968429	      0.02729652	     -0.11120970	     -4.44277204	     11.56885207	    -53.22172813	     35.69985194	   -103.55464841	    -31.07830127	     39.07168463	    -43.06849315	    -22.76891873	    -11.86209893	      0.23074749	    -10.00001735	     -8.49461061	      2.06959562	    -75.16554739
      0.47772035	      0.00000000	      0.00000000	      0.00000000	      0.00000000	      0.00000000	      0.00000000	      0.00000000	      0.00000000	      0.00000000	      0.00000000	      0.00000000	      0.00000000	      0.00000000	      0.00000000	      0.00000000	      0.00000000	      0.00000000	      0.00000000	     -9.07886860	     80.39775926	     -0.00923842	      0.03636937	     -0.17374506	     -4.55332767	     10.66869282	    -75.40094662	     34.09144772	   -127.00477657	    -30.45839546	     49.87834115	    -43.31094291	    -12.09289089	    -11.89598399	     -4.99513583	    -10.15427404	    -13.44802520	      0.89378700	    -93.17112519
      0.49490369	      0.00000000	      0.00000000	      0.00000000	      0.00000000	      0.00000000	      0.00000000	      0.00000000	      0.00000000	      0.00000000	      0.00000000	      0.00000000	      0.00000000	      0.00000000	      0.00000000	      0.00000000	      0.00000000	      0.00000000	      0.00000000	     -7.56849622	     94.26803311	     -0.00854465	      0.04366817	     -0.25321914	     -4.69845681	      9.18962987	    -95.31094953	     31.70866091	   -148.97956159	    -29.50029811	     61.23387138	    -43.40575782	      1.00004826	    -12.02843720	    -10.10798984	    -10.42270644	    -17.37362841	     -0.85048058	   -108.53627097
